<svg width="40" height="40" viewBox="0 0 40 40" fill="none" xmlns="http://www.w3.org/2000/svg">
<path d="M27.3333 40.1333C18.2222 40.1333 9.17778 40.1333 0.133334 40.1333C0.133332 26.8 0.133332 13.4667 0.133331 0.133337C13.4667 0.133334 26.8 0.133334 40.1333 0.133331C40.1333 13.4667 40.1333 26.8 40.1333 40.1333C35.8889 40.1333 31.6444 40.1333 27.3333 40.1333ZM13.8023 7.41092C14.5278 7.50551 15.2532 7.60011 16.0552 7.70469C15.9344 7.96318 15.8873 8.06015 15.8433 8.15849C15.5619 8.78782 15.6717 9.52469 16.108 9.93804C16.5976 10.402 17.2912 10.4747 17.9574 10.1318C19.0871 9.55042 19.8723 9.84097 20.4779 11.1041C19.9098 11.2886 19.5009 11.6192 19.5589 12.2904C19.6177 12.9715 20.1414 13.0902 20.6662 13.2479C21.3454 13.4521 21.713 13.9382 21.8341 14.6411C21.8686 14.8416 22.0336 15.0197 22.1389 15.2081C22.2448 14.9994 22.4383 14.7925 22.4426 14.5818C22.4755 12.9734 22.131 11.4465 21.2132 10.1075C19.2183 7.19694 16.4088 6.046 12.9458 6.41843C12.739 6.44067 12.5619 6.73846 12.371 6.90802C12.5848 7.07788 12.7772 7.29827 13.0194 7.40127C13.2064 7.48077 13.456 7.413 13.8023 7.41092ZM20.5051 24.9468C21.9773 28.7205 26.1158 30.8245 30.0572 29.7338C30.9836 29.4774 31.8542 29.0008 32.7221 28.5684C32.874 28.4927 32.8844 28.1329 32.9601 27.9042C32.7251 27.8386 32.4871 27.7135 32.2558 27.725C32.0516 27.7352 31.8605 27.9127 31.6537 27.9899C31.1472 28.1792 30.635 28.3531 30.1133 28.5374C30.057 28.359 30.026 28.2985 30.0198 28.2356C29.9246 27.2809 29.5379 26.7281 28.8591 26.5826C28.2087 26.4431 27.5787 26.7793 27.1148 27.5133C26.4649 28.5419 25.2862 28.6508 24.3438 27.7475C24.693 27.3065 24.8784 26.8178 24.5274 26.2949C24.1748 25.7694 23.6589 25.8878 23.1429 25.9787C22.4203 26.106 21.8338 25.8718 21.4266 25.2403C21.2944 25.0355 21.185 24.8036 21.0121 24.6403C20.7227 24.3669 20.5002 24.403 20.5051 24.9468ZM30.5793 20.7386C30.2262 21.2952 29.7212 21.6094 29.3586 21.6692C28.7898 21.2088 28.4402 20.7361 27.9927 20.6096C27.3799 20.4365 27.1019 21.0206 26.8384 21.5026C26.4491 22.2147 25.8344 22.4366 25.0378 22.319C24.8087 22.2852 24.5488 22.4599 24.303 22.5391C24.4991 22.68 24.6759 22.892 24.8942 22.9512C28.5044 23.9315 32.4027 22.2261 34.0481 18.8601C34.5266 17.8813 34.7469 16.7706 35.0242 15.7044C35.0709 15.5246 34.8555 15.1425 34.6719 15.0649C34.2947 14.9054 34.1324 15.2236 34.0515 15.5556C33.9989 15.7714 33.9537 15.9902 33.8832 16.2002C33.7174 16.6938 33.5383 17.1829 33.3668 17.6678C33.2157 17.6225 33.1675 17.6191 33.1324 17.596C32.2831 17.0355 31.6225 16.9827 31.0571 17.4326C30.4785 17.8932 30.4153 18.4466 30.676 19.4303C30.7756 19.8063 30.6511 20.2417 30.5793 20.7386ZM9.6962 28.097C9.67624 27.9653 9.64894 27.8344 9.63749 27.702C9.55304 26.7257 9.56459 26.8071 10.4944 26.6866C10.96 26.6263 11.4844 26.2941 11.7913 25.9258C12.1407 25.5064 12.0713 24.9147 11.7528 24.4231C11.6326 24.2377 11.4734 24.0782 11.3409 23.9002C10.7645 23.1265 10.9366 22.2289 11.5261 21.8395C12.2115 21.9654 12.718 22.1928 13.1659 22.1086C13.7992 21.9894 13.8133 21.3673 13.83 20.8133C13.8545 20.0011 14.4031 19.6262 15.0831 19.3483C15.2723 19.2711 15.4059 19.058 15.565 18.9072C15.3571 18.8462 15.1329 18.7003 14.9436 18.7365C9.53175 19.7719 7.31659 25.4221 9.00191 29.78C9.07754 29.9755 9.43189 30.1989 9.6359 30.1806C10.0461 30.1438 10.0204 29.7829 9.94895 29.4526C9.86001 29.0416 9.78883 28.6267 9.6962 28.097ZM16.1351 13.7929C11.7576 11.6842 7.32904 13.9023 5.48129 16.9578C5.29116 17.2722 5.00805 17.6459 5.48186 17.9364C5.89986 18.1926 6.09426 17.8206 6.33803 17.5535C6.969 16.8623 7.62941 16.198 8.33511 15.4636C8.56982 15.8115 8.67872 15.9987 8.81231 16.1661C9.2027 16.6555 9.70337 16.8751 10.336 16.7732C10.9352 16.6767 11.2553 16.2799 11.4566 15.7548C11.5199 15.5898 11.5461 15.4111 11.6011 15.2426C11.9062 14.309 12.5897 13.9608 13.5979 14.2411C13.6071 14.3393 13.5909 14.458 13.6318 14.5518C13.7982 14.9335 13.8915 15.4857 14.1848 15.6348C14.4829 15.7864 15.0541 15.6482 15.3824 15.4413C16.0497 15.0209 16.6421 15.0013 17.3144 15.3777C17.4978 15.4803 17.7728 15.4193 18.0058 15.4334C17.8912 15.2218 17.826 14.9476 17.6524 14.8108C17.2011 14.4549 16.7022 14.1594 16.1351 13.7929ZM28.7362 10.9447C28.4856 9.01662 27.7518 7.30738 26.3927 5.9001C26.1112 5.60856 25.7917 5.05555 25.3029 5.48035C24.7864 5.92933 25.3816 6.24631 25.5978 6.58743C26.0255 7.26236 26.4615 7.93206 26.9007 8.61438C25.7419 9.21497 25.5054 9.52553 25.4735 10.2363C25.4356 11.0792 25.998 11.4353 26.627 11.7771C27.3981 12.196 27.6593 12.9396 27.3252 13.8312C27.2641 13.9943 26.9605 14.1741 26.7771 14.1657C25.8187 14.1215 25.3728 14.7104 25.5861 15.6583C25.6916 16.1268 25.6334 16.6485 25.5611 17.133C25.5303 17.3392 25.2428 17.495 25.1296 17.7048C25.039 17.8728 25.0357 18.0877 24.9936 18.2818C25.1909 18.2451 25.398 18.234 25.5821 18.1632C25.7209 18.1099 25.8356 17.986 25.952 17.8833C28.006 16.0709 28.9453 13.8006 28.7362 10.9447ZM16.0551 30.4185C17.1135 32.5385 18.7154 34.0583 20.9865 34.8013C21.2316 34.8815 21.7027 34.802 21.8212 34.6279C22.071 34.261 21.7014 34.0591 21.4015 33.8861C20.7692 33.5214 20.1431 33.1457 19.5161 32.7718C19.1793 32.571 19.1132 32.3461 19.4077 32.0301C19.8673 31.5369 19.9181 30.9562 19.6382 30.3613C19.3628 29.7757 18.8423 29.567 18.2277 29.5198C17.9649 29.4996 17.6181 29.5263 17.4619 29.3747C17.1001 29.0237 16.7645 28.6098 16.5427 28.16C16.3036 27.6751 16.8387 27.6287 17.1047 27.4403C17.6446 27.0578 17.7385 26.3884 17.2268 25.8863C16.5666 25.2385 16.4442 24.5595 16.7747 23.717C16.8663 23.4832 16.7502 23.1679 16.7294 22.89C16.5288 23.0964 16.2603 23.2691 16.1381 23.5145C15.0201 25.7605 15.0243 28.0383 16.0551 30.4185Z" fill="#2C315D"/>
</svg>
