<svg version="1.1" id="Layer_1" xmlns="http://www.w3.org/2000/svg" xmlns:xlink="http://www.w3.org/1999/xlink" x="0px" y="0px"
	 width="100%" viewBox="0 0 300 300" enable-background="new 0 0 300 300" xml:space="preserve">
<path fill="#2C315D" opacity="1.000000" stroke="none" 
	d="
M205.000000,301.000000 
	C136.666672,301.000000 68.833359,301.000000 1.000027,301.000000 
	C1.000018,201.000031 1.000018,101.000061 1.000009,1.000068 
	C100.999947,1.000045 200.999893,1.000045 300.999878,1.000023 
	C300.999939,100.999939 300.999939,200.999878 300.999969,300.999908 
	C269.166656,301.000000 237.333328,301.000000 205.000000,301.000000 
M103.517525,55.581940 
	C108.958183,56.291382 114.398849,57.000824 120.414101,57.785191 
	C119.507767,59.723885 119.154930,60.451172 118.825050,61.188728 
	C116.714043,65.908676 117.538078,71.435211 120.809753,74.535355 
	C124.481941,78.015007 129.684341,78.560165 134.680389,75.988869 
	C143.153137,71.628212 149.042145,73.807281 153.584457,83.280632 
	C149.323593,84.664536 146.257034,87.143867 146.691544,92.178223 
	C147.132401,97.285912 151.060257,98.176323 154.996521,99.359634 
	C160.090393,100.890953 162.847519,104.536285 163.755417,109.808182 
	C164.014435,111.312233 165.252380,112.647697 166.041443,114.060478 
	C166.835648,112.495491 168.287140,110.943962 168.319489,109.363380 
	C168.566284,97.300552 165.982437,85.848534 159.099274,75.806358 
	C144.136902,53.977097 123.065735,45.345009 97.093323,48.138268 
	C95.542786,48.305031 94.214500,50.538467 92.782791,51.810219 
	C94.386314,53.084114 95.828651,54.737087 97.645378,55.509544 
	C99.047714,56.105804 100.919685,55.597511 103.517525,55.581940 
M153.788620,187.100739 
	C164.829422,215.403915 195.868851,231.183563 225.429031,223.003479 
	C232.377350,221.080673 238.906754,217.506088 245.415604,214.263351 
	C246.555206,213.695587 246.632935,210.996445 247.201096,209.281693 
	C245.438110,208.789169 243.652893,207.851181 241.918808,207.937714 
	C240.386658,208.014175 238.953583,209.345261 237.402847,209.924545 
	C233.603897,211.343735 229.762253,212.648621 225.849899,214.030563 
	C225.427170,212.692474 225.195221,212.239075 225.148178,211.767242 
	C224.434311,204.607040 221.533997,200.460968 216.443588,199.369476 
	C211.565109,198.323425 206.840134,200.844604 203.361160,206.350006 
	C198.486588,214.063995 189.646591,214.880829 182.578842,208.106400 
	C185.197311,204.798904 186.587723,201.133835 183.955673,197.211533 
	C181.310913,193.270233 177.441498,194.158508 173.572021,194.840088 
	C168.152222,195.794708 163.753845,194.038254 160.699203,189.302551 
	C159.708328,187.766342 158.887878,186.026932 157.591141,184.802216 
	C155.420029,182.751663 153.751465,183.022552 153.788620,187.100739 
M229.344879,155.539719 
	C226.696228,159.714279 222.908844,162.070908 220.189636,162.519363 
	C215.923874,159.066116 213.301422,155.520538 209.945190,154.572372 
	C205.349243,153.274017 203.264572,157.654617 201.288132,161.269394 
	C198.368011,166.610077 193.758163,168.274643 187.783463,167.392441 
	C186.065216,167.138733 184.115982,168.449509 182.272644,169.042984 
	C183.743347,170.099884 185.069336,171.689743 186.706329,172.134247 
	C213.782761,179.486282 243.020340,166.695435 255.361038,141.450806 
	C258.949768,134.109543 260.601959,125.779694 262.681183,117.783226 
	C263.031891,116.434448 261.415955,113.568611 260.039459,112.986679 
	C257.210480,111.790695 255.993362,114.177406 255.386490,116.667076 
	C254.991974,118.285515 254.652939,119.926178 254.123810,121.501366 
	C252.880249,125.203323 251.537567,128.871994 250.251175,132.508362 
	C249.117874,132.168900 248.756561,132.143478 248.493179,131.969666 
	C242.123199,127.766373 237.168518,127.370064 232.928497,130.744858 
	C228.588791,134.198990 228.114792,138.349731 230.069794,145.727509 
	C230.817062,148.547531 229.883606,151.812927 229.344879,155.539719 
M72.721504,210.727371 
	C72.571808,209.740143 72.367073,208.757675 72.281197,207.764923 
	C71.647827,200.442947 71.734459,201.053192 78.707993,200.149490 
	C82.200073,199.696930 86.132896,197.205582 88.434517,194.443268 
	C91.055000,191.298279 90.535034,186.860107 88.145676,183.173264 
	C87.244629,181.782928 86.050522,180.586258 85.056427,179.251831 
	C80.733536,173.448929 82.024879,166.716766 86.445953,163.796112 
	C91.586052,164.740692 95.384872,166.446136 98.744064,165.814270 
	C103.494057,164.920837 103.599876,160.254532 103.725266,156.099503 
	C103.909088,150.008041 108.023590,147.196564 113.123611,145.112656 
	C114.542168,144.533020 115.544540,142.934814 116.737854,141.803925 
	C115.178307,141.346329 113.496956,140.252106 112.076935,140.523773 
	C71.488159,148.289246 54.874462,190.665710 67.514359,223.349686 
	C68.081581,224.816406 70.739197,226.492111 72.269257,226.354843 
	C75.345787,226.078857 75.153107,223.371750 74.617126,220.894836 
	C73.950058,217.812073 73.416229,214.700485 72.721504,210.727371 
M121.013512,103.446747 
	C88.182053,87.631279 54.967812,104.267166 41.109695,127.183311 
	C39.683697,129.541382 37.560398,132.344223 41.113945,134.522827 
	C44.249001,136.444855 45.706940,133.654556 47.535271,131.651627 
	C52.267502,126.467484 57.220623,121.484970 62.513367,115.976715 
	C64.273689,118.586342 65.090401,119.990074 66.092346,121.246010 
	C69.020279,124.916183 72.775291,126.562935 77.519867,125.798859 
	C82.013664,125.075150 84.414604,122.098976 85.924881,118.160667 
	C86.399223,116.923737 86.595520,115.583160 87.008484,114.319229 
	C89.296150,107.317497 94.422882,104.706192 101.984207,106.807991 
	C102.053230,107.544525 101.931801,108.434738 102.238495,109.138344 
	C103.486389,112.001236 104.186340,116.143127 106.385689,117.261017 
	C108.622131,118.397758 112.905563,117.361763 115.368111,115.810043 
	C120.372490,112.656662 124.815491,112.509415 129.857941,115.332474 
	C131.233292,116.102486 133.295990,115.644791 135.043243,115.750526 
	C134.183914,114.163506 133.694717,112.107048 132.393204,111.080864 
	C129.008270,108.411980 125.266647,106.195488 121.013512,103.446747 
M215.521683,82.085464 
	C213.641693,67.624649 208.138168,54.805420 197.945312,44.250751 
	C195.833755,42.064243 193.437714,37.916695 189.772018,41.102657 
	C185.897659,44.469990 190.362289,46.847347 191.983551,49.405724 
	C195.191330,54.467701 198.460968,59.490486 201.755508,64.607880 
	C193.064514,69.112328 191.290421,71.441505 191.051010,76.772255 
	C190.767090,83.093742 194.985016,85.765030 199.702698,88.328163 
	C205.485397,91.469917 207.444626,97.047028 204.939041,103.734329 
	C204.480850,104.957230 202.203690,106.306076 200.828583,106.242683 
	C193.640442,105.911324 190.296295,110.327911 191.896103,117.436958 
	C192.686890,120.950981 192.250580,124.863754 191.708267,128.497421 
	C191.477432,130.044067 189.320770,131.212646 188.471985,132.786407 
	C187.792740,134.045807 187.767731,135.658051 187.452347,137.113693 
	C188.931610,136.838150 190.484894,136.755081 191.865952,136.224121 
	C192.906891,135.823914 193.767029,134.895050 194.639969,134.124817 
	C210.044693,120.532120 217.089676,103.504906 215.521683,82.085464 
M120.413551,228.138763 
	C128.350952,244.038727 140.365631,255.437042 157.398544,261.009552 
	C159.236893,261.610992 162.770309,261.014923 163.659088,259.709290 
	C165.532471,256.957275 162.760330,255.443024 160.511505,254.146011 
	C155.768768,251.410629 151.073517,248.592545 146.370682,245.788422 
	C143.844635,244.282242 143.349228,242.595688 145.557800,240.225693 
	C149.004608,236.526886 149.385880,232.171783 147.286713,227.709503 
	C145.220657,223.317596 141.317444,221.752563 136.707962,221.398727 
	C134.736603,221.247391 132.135925,221.447556 130.963913,220.310349 
	C128.250488,217.677444 125.733398,214.573166 124.070320,211.199753 
	C122.277351,207.562943 126.290054,207.215469 128.284973,205.802353 
	C132.334671,202.933716 133.039032,197.913330 129.200912,194.147034 
	C124.249741,189.288513 123.331444,184.196640 125.809898,177.877289 
	C126.497566,176.123947 125.626709,173.759354 125.470886,171.675186 
	C123.966164,173.223343 121.952568,174.518173 121.036110,176.359161 
	C112.650780,193.203735 112.682167,210.287094 120.413551,228.138763 
z"/>
<path fill="#B0BFD5" opacity="1.000000" stroke="none" 
	d="
M103.050186,55.581123 
	C100.919685,55.597511 99.047714,56.105804 97.645378,55.509544 
	C95.828651,54.737087 94.386314,53.084114 92.782791,51.810219 
	C94.214500,50.538467 95.542786,48.305031 97.093323,48.138268 
	C123.065735,45.345009 144.136902,53.977097 159.099274,75.806358 
	C165.982437,85.848534 168.566284,97.300552 168.319489,109.363380 
	C168.287140,110.943962 166.835648,112.495491 166.041443,114.060471 
	C165.252380,112.647697 164.014435,111.312233 163.755417,109.808182 
	C162.847519,104.536285 160.090393,100.890953 154.996521,99.359634 
	C151.060257,98.176323 147.132401,97.285912 146.691544,92.178223 
	C146.257034,87.143867 149.323593,84.664536 153.584457,83.280632 
	C149.042145,73.807281 143.153137,71.628212 134.680389,75.988869 
	C129.684341,78.560165 124.481941,78.015007 120.809753,74.535355 
	C117.538078,71.435211 116.714043,65.908676 118.825050,61.188728 
	C119.154930,60.451172 119.507767,59.723885 120.414101,57.785191 
	C114.398849,57.000824 108.958183,56.291382 103.050186,55.581123 
z"/>
<path fill="#6587AF" opacity="1.000000" stroke="none" 
	d="
M153.683899,186.767212 
	C153.751465,183.022552 155.420029,182.751663 157.591141,184.802216 
	C158.887878,186.026932 159.708328,187.766342 160.699203,189.302551 
	C163.753845,194.038254 168.152222,195.794708 173.572021,194.840088 
	C177.441498,194.158508 181.310913,193.270233 183.955673,197.211533 
	C186.587723,201.133835 185.197311,204.798904 182.578842,208.106400 
	C189.646591,214.880829 198.486588,214.063995 203.361160,206.350006 
	C206.840134,200.844604 211.565109,198.323425 216.443588,199.369476 
	C221.533997,200.460968 224.434311,204.607040 225.148178,211.767242 
	C225.195221,212.239075 225.427170,212.692474 225.849899,214.030563 
	C229.762253,212.648621 233.603897,211.343735 237.402847,209.924545 
	C238.953583,209.345261 240.386658,208.014175 241.918808,207.937714 
	C243.652893,207.851181 245.438110,208.789169 247.201080,209.281693 
	C246.632935,210.996445 246.555206,213.695587 245.415604,214.263351 
	C238.906754,217.506088 232.377350,221.080673 225.429031,223.003479 
	C195.868851,231.183563 164.829422,215.403915 153.683899,186.767212 
z"/>
<path fill="#6587AF" opacity="1.000000" stroke="none" 
	d="
M229.530487,155.207535 
	C229.883606,151.812927 230.817062,148.547531 230.069794,145.727509 
	C228.114792,138.349731 228.588791,134.198990 232.928497,130.744858 
	C237.168518,127.370064 242.123199,127.766373 248.493179,131.969666 
	C248.756561,132.143478 249.117874,132.168900 250.251175,132.508362 
	C251.537567,128.871994 252.880249,125.203323 254.123810,121.501366 
	C254.652939,119.926178 254.991974,118.285515 255.386490,116.667076 
	C255.993362,114.177406 257.210480,111.790695 260.039459,112.986679 
	C261.415955,113.568611 263.031891,116.434448 262.681183,117.783226 
	C260.601959,125.779694 258.949768,134.109543 255.361038,141.450806 
	C243.020340,166.695435 213.782761,179.486282 186.706329,172.134247 
	C185.069336,171.689743 183.743347,170.099884 182.272644,169.042984 
	C184.115982,168.449509 186.065216,167.138733 187.783463,167.392441 
	C193.758163,168.274643 198.368011,166.610077 201.288132,161.269394 
	C203.264572,157.654617 205.349243,153.274017 209.945190,154.572372 
	C213.301422,155.520538 215.923874,159.066116 220.189636,162.519363 
	C222.908844,162.070908 226.696228,159.714279 229.530487,155.207535 
z"/>
<path fill="#6587AF" opacity="1.000000" stroke="none" 
	d="
M72.773178,211.164352 
	C73.416229,214.700485 73.950058,217.812073 74.617126,220.894836 
	C75.153107,223.371750 75.345787,226.078857 72.269257,226.354843 
	C70.739197,226.492111 68.081581,224.816406 67.514359,223.349686 
	C54.874462,190.665710 71.488159,148.289246 112.076935,140.523773 
	C113.496956,140.252106 115.178307,141.346329 116.737854,141.803925 
	C115.544540,142.934814 114.542168,144.533020 113.123611,145.112656 
	C108.023590,147.196564 103.909088,150.008041 103.725266,156.099503 
	C103.599876,160.254532 103.494057,164.920837 98.744064,165.814270 
	C95.384872,166.446136 91.586052,164.740692 86.445953,163.796112 
	C82.024879,166.716766 80.733536,173.448929 85.056427,179.251831 
	C86.050522,180.586258 87.244629,181.782928 88.145676,183.173264 
	C90.535034,186.860107 91.055000,191.298279 88.434517,194.443268 
	C86.132896,197.205582 82.200073,199.696930 78.707993,200.149490 
	C71.734459,201.053192 71.647827,200.442947 72.281197,207.764923 
	C72.367073,208.757675 72.571808,209.740143 72.773178,211.164352 
z"/>
<path fill="#6687AF" opacity="1.000000" stroke="none" 
	d="
M121.340424,103.622620 
	C125.266647,106.195488 129.008270,108.411980 132.393204,111.080864 
	C133.694717,112.107048 134.183914,114.163506 135.043243,115.750526 
	C133.295990,115.644791 131.233292,116.102486 129.857941,115.332474 
	C124.815491,112.509415 120.372490,112.656662 115.368111,115.810043 
	C112.905563,117.361763 108.622131,118.397758 106.385689,117.261017 
	C104.186340,116.143127 103.486389,112.001236 102.238495,109.138344 
	C101.931801,108.434738 102.053230,107.544525 101.984207,106.807991 
	C94.422882,104.706192 89.296150,107.317497 87.008484,114.319229 
	C86.595520,115.583160 86.399223,116.923737 85.924881,118.160667 
	C84.414604,122.098976 82.013664,125.075150 77.519867,125.798859 
	C72.775291,126.562935 69.020279,124.916183 66.092346,121.246010 
	C65.090401,119.990074 64.273689,118.586342 62.513367,115.976715 
	C57.220623,121.484970 52.267502,126.467484 47.535271,131.651627 
	C45.706940,133.654556 44.249001,136.444855 41.113945,134.522827 
	C37.560398,132.344223 39.683697,129.541382 41.109695,127.183311 
	C54.967812,104.267166 88.182053,87.631279 121.340424,103.622620 
z"/>
<path fill="#6587AF" opacity="1.000000" stroke="none" 
	d="
M215.567078,82.535614 
	C217.089676,103.504906 210.044693,120.532120 194.639969,134.124817 
	C193.767029,134.895050 192.906891,135.823914 191.865952,136.224121 
	C190.484894,136.755081 188.931610,136.838150 187.452362,137.113708 
	C187.767731,135.658051 187.792740,134.045807 188.471985,132.786407 
	C189.320770,131.212646 191.477432,130.044067 191.708267,128.497421 
	C192.250580,124.863754 192.686890,120.950981 191.896103,117.436958 
	C190.296295,110.327911 193.640442,105.911324 200.828583,106.242683 
	C202.203690,106.306076 204.480850,104.957230 204.939041,103.734329 
	C207.444626,97.047028 205.485397,91.469917 199.702698,88.328163 
	C194.985016,85.765030 190.767090,83.093742 191.051010,76.772255 
	C191.290421,71.441505 193.064514,69.112328 201.755508,64.607880 
	C198.460968,59.490486 195.191330,54.467701 191.983551,49.405724 
	C190.362289,46.847347 185.897659,44.469990 189.772018,41.102657 
	C193.437714,37.916695 195.833755,42.064243 197.945312,44.250751 
	C208.138168,54.805420 213.641693,67.624649 215.567078,82.535614 
z"/>
<path fill="#6687AF" opacity="1.000000" stroke="none" 
	d="
M120.237732,227.805527 
	C112.682167,210.287094 112.650780,193.203735 121.036110,176.359161 
	C121.952568,174.518173 123.966164,173.223343 125.470886,171.675186 
	C125.626709,173.759354 126.497566,176.123947 125.809898,177.877289 
	C123.331444,184.196640 124.249741,189.288513 129.200912,194.147034 
	C133.039032,197.913330 132.334671,202.933716 128.284973,205.802353 
	C126.290054,207.215469 122.277351,207.562943 124.070320,211.199753 
	C125.733398,214.573166 128.250488,217.677444 130.963913,220.310349 
	C132.135925,221.447556 134.736603,221.247391 136.707962,221.398727 
	C141.317444,221.752563 145.220657,223.317596 147.286713,227.709503 
	C149.385880,232.171783 149.004608,236.526886 145.557800,240.225693 
	C143.349228,242.595688 143.844635,244.282242 146.370682,245.788422 
	C151.073517,248.592545 155.768768,251.410629 160.511505,254.146011 
	C162.760330,255.443024 165.532471,256.957275 163.659088,259.709290 
	C162.770309,261.014923 159.236893,261.610992 157.398544,261.009552 
	C140.365631,255.437042 128.350952,244.038727 120.237732,227.805527 
z"/>
</svg>